<?xml version="1.0" encoding="UTF-8"?>
<svg fill="#000000" width="20px" height="20px" version="1.1" viewBox="144 144 512 512" xmlns="http://www.w3.org/2000/svg">
 <g>
  <path d="m400 525.95c-117.7 0-209.92-55.332-209.92-125.95 0-38.121 27.289-73.473 74.668-96.922 6.7148-3.2656 14.664-2.7188 20.867 1.4375 6.207 4.1562 9.7344 11.297 9.2656 18.754-0.46484 7.4531-4.8594 14.098-11.535 17.449-32.578 16.121-51.281 37.742-51.281 59.281 0 39.719 68.98 83.969 167.94 83.969v-0.003906c18.012 0.10156 35.992-1.5234 53.695-4.8477 5.5312-1.2422 11.332-0.19531 16.078 2.9023 4.7461 3.0977 8.0391 7.9844 9.1289 13.547 1.0859 5.5625-0.12109 11.332-3.3477 15.988-3.2305 4.6602-8.207 7.8164-13.797 8.75-20.359 3.8633-41.039 5.7539-61.758 5.6445z"/>
  <path d="m420.99 567.93c-5.5664 0-10.906-2.2109-14.844-6.1484-3.9336-3.9375-6.1445-9.2734-6.1445-14.84 0-5.5664 2.2109-10.906 6.1445-14.844l27.145-27.145-27.145-27.145v0.003906c-5.1484-5.332-7.1055-12.984-5.1445-20.133 1.9609-7.1523 7.5469-12.734 14.695-14.695 7.1484-1.9609 14.801-0.003906 20.133 5.1445l41.984 41.984c3.9336 3.9375 6.1445 9.2734 6.1445 14.84 0 5.5664-2.2109 10.906-6.1445 14.844l-41.984 41.984c-3.9375 3.9375-9.2734 6.1484-14.84 6.1484z"/>
  <path d="m525.95 499.08c-6.4023 0.050781-12.477-2.8203-16.5-7.8047-4.0234-4.9805-5.5547-11.523-4.1562-17.773 1.3984-6.25 5.5742-11.516 11.336-14.309 32.602-16.039 51.305-37.66 51.305-59.195 0-39.719-68.98-83.969-167.94-83.969h0.003906c-18.016-0.10156-35.996 1.5234-53.699 4.8477-5.5312 1.2422-11.328 0.19922-16.078-2.9023-4.7461-3.0977-8.0391-7.9844-9.1289-13.547-1.0859-5.5625 0.12109-11.328 3.3477-15.988 3.2305-4.6602 8.207-7.8164 13.797-8.75 20.359-3.8633 41.039-5.7539 61.762-5.6445 117.7 0 209.92 55.336 209.92 125.95 0 38.121-27.289 73.473-74.668 96.922l-0.003906-0.003906c-2.8906 1.4258-6.0742 2.168-9.3008 2.1641z"/>
  <path d="m379.01 358.02c-5.5664-0.003906-10.906-2.2148-14.844-6.1523l-41.984-41.984c-3.9336-3.9375-6.1445-9.2734-6.1445-14.84 0-5.5664 2.2109-10.906 6.1445-14.844l41.984-41.984c3.9141-4.0469 9.2891-6.3555 14.918-6.4062 5.6289-0.046876 11.043 2.168 15.027 6.1484 3.9805 3.9805 6.1953 9.3945 6.1445 15.027-0.046875 5.6289-2.3555 11.004-6.4062 14.914l-27.141 27.145 27.145 27.145-0.003906-0.003906c3.9375 3.9375 6.1484 9.2773 6.1445 14.844 0 5.5664-2.2109 10.906-6.1445 14.84-3.9375 3.9375-9.2734 6.1484-14.84 6.1523z"/>
 </g>
</svg>