<?xml version="1.0" encoding="UTF-8"?>
<svg fill="#000000" width="100px" height="100px" version="1.1" viewBox="144 144 512 512" xmlns="http://www.w3.org/2000/svg">
    <path d="m392.11 249.67-126.7 59.793c-0.69141 0.32422-1.3008 0.80078-1.7773 1.4023l-80.059 99.59c-1.4609 1.8086-1.4805 4.3867-0.058594 6.2305l31.82 41.223 80.785 99.422c0.96875 1.1875 2.4141 1.8594 3.9102 1.8594 0.35156 0 0.70703-0.039062 1.0586-0.10938l135.6-29.16 129.21 10.891c0.14062 0.011719 0.28906 0.015625 0.42188 0.015625 1.918 0 3.6875-1.0977 4.5352-2.8477l52.426-108.5c0.33203-0.69922 0.51562-1.4648 0.50391-2.2383l-0.38281-43.387c-0.011719-1.2578-0.5-2.4727-1.3594-3.3945l-76.789-82.164c-0.58594-0.62891-1.3203-1.0938-2.1367-1.3594l-147.31-47.508c-0.50391-0.16797-1.0273-0.24609-1.5469-0.24609-0.73438 0-1.4727 0.16797-2.1445 0.48438zm-51.078 154.84-65.902-82.301 131.07-21.93zm70.699-103.58 91.523 94.242-157.21 10.836zm-74.578 106.8-113.49 42.773 47.605-125.06zm167.18-7.5859-68.348 120.25-89.656-109.36zm-86.852-100.52 120.6 4.5156-30.301 88.48zm-132.29 15.793 107.76-57.629 14.832 37.121zm-13.543 1.5312-0.77734-1.707 33.727-15.91zm-4.1523 3.0391-15.496 17.402 14.953-18.594zm-4.25 12.348-44.688 117.4-27.797-36.004zm74.246 80.648-38.57 135.82-75.453-92.844zm4.8906 1.207 89.402 109.05-128.2 27.57zm166.1-11.156 53.914 129.9-121.91-10.273zm4.6562-1.9336 102.02 27.82-48.664 100.71zm-1.043-5.5078 30.121-87.98 71.043 115.57zm-99.07-101.18-14.445-36.145 124.86 40.27zm143.8 27.336 59.027 63.148 0.29688 33.352z"/>
</svg>