<?xml version="1.0" encoding="UTF-8"?>
<svg width="100px" height="100px" version="1.1" viewBox="144 144 512 512" xmlns="http://www.w3.org/2000/svg">
    <g>
        <path d="m536.38 592.94 61.445-109.25-107 46.535z" fill="currentColor"/>
        <path d="m272.81 595.9 122.9 24.68-77.328-87.391z" fill="currentColor"/>
        <path d="m207.29 483.69 61.441 109.25 45.57-62.711z" fill="currentColor"/>
        <path d="m323.78 531.68 78.777 89.043 78.785-89.043z" fill="currentColor"/>
        <path d="m275.03 249.16-84.914 92.199 73.727 23.957z" fill="currentColor"/>
        <path d="m188.56 346.15 14.496 124.5 59.227-100.55z" fill="currentColor"/>
        <path d="m491.06 524.62 109.02-47.41-60.344-102.44z" fill="currentColor"/>
        <path d="m409.41 620.58 122.89-24.68-45.57-62.711z" fill="currentColor"/>
        <path d="m602.06 470.65 14.504-124.5-73.727 23.949z" fill="currentColor"/>
        <path d="m265.38 374.77-60.34 102.44 109.02 47.41z" fill="currentColor"/>
        <path d="m400.04 274.44-128.51 93.367 128.51 41.762z" fill="currentColor"/>
        <path d="m536.03 363.36-11.395-118.34-116.07 25.734z" fill="currentColor"/>
        <path d="m405.08 274.44v135.13l128.52-41.762z" fill="currentColor"/>
        <path d="m405.08 188.83v77.527l113.93-25.258z" fill="currentColor"/>
        <path d="m486.07 523.68 49.082-151.08-128.51 41.762z" fill="currentColor"/>
        <path d="m615.02 341.36-84.922-92.199 11.188 116.16z" fill="currentColor"/>
        <path d="m396.56 270.75-116.07-25.734-11.395 118.34z" fill="currentColor"/>
        <path d="m319.05 523.68 79.434-109.32-128.52-41.762z" fill="currentColor"/>
        <path d="m481.99 526.64-79.434-109.32-79.426 109.32z" fill="currentColor"/>
        <path d="m400.04 188.83-113.92 52.27 113.92 25.258z" fill="currentColor"/>
    </g>
</svg>