<?xml version="1.0" encoding="UTF-8"?>
<svg fill="#000000" width="800px" height="800px" version="1.1" viewBox="144 144 512 512" xmlns="http://www.w3.org/2000/svg" aria-hidden="true" role="img">
 <path d="m620.03 341.52c-0.019531-0.082031-0.10547-0.10547-0.14453-0.17188-0.039063-0.074219-0.011719-0.15625-0.058594-0.22266l-55.297-69.613c-0.03125-0.039062-0.089844-0.03125-0.11719-0.066406-0.039062-0.046875-0.050781-0.10938-0.10156-0.14453-0.011719-0.015625-0.03125-0.023437-0.050781-0.035156l-78.359-56.941c-0.011719 0-0.011719 0-0.011719-0.003906-0.058594-0.039062-0.125-0.035156-0.19531-0.066406-0.039062-0.023438-0.050781-0.082031-0.10156-0.097656l-83.281-31.074c-0.082031-0.03125-0.15234 0.019531-0.22656 0.011719-0.082032-0.015625-0.125-0.089844-0.21094-0.089844s-0.13281 0.074219-0.21094 0.089844c-0.074218 0.011718-0.14453-0.039063-0.22656-0.011719l-83.285 31.074c-0.046875 0.015625-0.054688 0.070312-0.10156 0.097656-0.066406 0.03125-0.13281 0.023438-0.19141 0.066406 0 0.003906-0.003906 0.003906-0.011719 0.003906l-78.371 56.945c-0.015624 0.011719-0.023437 0.019531-0.039062 0.03125-0.046875 0.035156-0.054688 0.10547-0.097656 0.14062-0.035156 0.035156-0.097656 0.03125-0.12109 0.070312l-55.289 69.609c-0.054688 0.066406-0.023438 0.14453-0.066407 0.22266-0.039062 0.070312-0.12109 0.097656-0.14453 0.17188s0.03125 0.14062 0.019531 0.22266c-0.015625 0.082031-0.089843 0.13672-0.085937 0.22266l3.8125 88.812c0 0.058594 0.058594 0.097657 0.070312 0.14453 0.011719 0.058594-0.019531 0.10547-0.003906 0.16797 0.003906 0.003907 0 0.015625 0 0.023438l29.938 92.125c0.003906 0.011719 0.011719 0.011719 0.011719 0.019531 0 0 0.003906 0 0.003906 0.003906 0.019531 0.054688 0.070313 0.082032 0.097656 0.125 0.003907 0.011719 0.011719 0.015625 0.019531 0.023438 0.019532 0.039062-0.003906 0.097656 0.023438 0.13672l49.062 74.008c0 0.003906 0 0.003906 0.003906 0.011719l0.046875 0.070312c0.066407 0.10156 0.15625 0.14453 0.24219 0.22266 0.03125 0.03125 0.03125 0.082032 0.066406 0.10547 0.023437 0.015625 0.054687 0.011719 0.082031 0.023438 0.082032 0.054687 0.16016 0.085937 0.25 0.10938 0.03125 0.015625 0.039063 0.050781 0.074219 0.058594l85.652 23.824c0.10938 0.03125 0.22656 0.046875 0.33594 0.046875h96.887c0.10547 0 0.22656-0.015625 0.33203-0.046875l85.656-23.824c0.03125-0.011719 0.039063-0.046876 0.070313-0.058594 0.089843-0.03125 0.17578-0.058594 0.25781-0.10938 0.019531-0.015625 0.050781-0.011719 0.082031-0.023438 0.03125-0.023437 0.03125-0.074219 0.058594-0.10547 0.089844-0.074218 0.17578-0.12109 0.24609-0.22266l0.039062-0.070312c0.011719-0.003906 0.011719-0.003906 0.011719-0.011719l49.062-74.008c0.03125-0.046874 0-0.10156 0.019531-0.13672 0.011719-0.011719 0.019532-0.015625 0.019532-0.023438 0.03125-0.050781 0.082031-0.074218 0.10156-0.125v-0.003906c0-0.011719 0.011719-0.011719 0.011719-0.019531l29.93-92.125v-0.023438c0.019532-0.058593-0.011718-0.10547 0-0.16797 0.011719-0.054687 0.058594-0.089843 0.070313-0.14453l3.8203-88.812c0-0.085937-0.070313-0.14062-0.089844-0.22266-0.023438-0.078125 0.035156-0.14844 0.003906-0.21875zm-216.89-21.465 86.184 62.609-86.184 28zm-2.5195 90.602-86.176-28 86.176-62.609zm-87.781-29.941-5.4102-98.328 91.84 35.535zm87.008 32.336-53.27 73.316-32.914-101.31zm2.0352 1.4805 53.27 73.309h-106.54zm53.422 75.828-53.422 82.727-53.426-82.727zm-51.395-77.309 86.188-28-32.914 101.32zm0.58203-95.129 91.836-35.535-5.4023 98.328zm-1.3516-2.1797v-85.281l91.562 49.855zm-2.5195 0-91.574-35.422 91.574-49.855zm-90.277 65.586-81.113-26.344 75.711-71.688zm33.891 105.96-95.191-25.242 62.176-76.371zm-0.18359 2.5469-50.125 68.996-44.785-94.156zm2.0273 1.4844 53.27 82.48-103.39-13.488zm111.59 0 50.125 68.996-103.39 13.488zm2.043-1.4844 94.906-25.16-44.785 94.156zm-0.19141-2.5469 33.016-101.61 62.172 76.371zm39.281-204 75.707 71.688-81.102 26.344zm-93.055-54.289 78.414-12.238 11.801 61.359zm-97.953 49.125 11.805-61.359 78.414 12.238zm-79.129 73.91 12.594-78.352 61.992 7.7344zm80.895 31.676-61.977 76.141-19.125-102.49zm-18.598 174.76-70.633-36.184 26.52-56.574zm108.11 17.84-45.609 42.707-56.242-56zm107.47-13.293-56.246 56-45.605-42.707zm50.375-97.305 26.52 56.574-70.633 36.184zm-62.723-82 81.102-26.344-19.121 102.49zm6.3047-102.29 62.004-7.7344 12.586 78.352zm-1.7891-2.3164-11.707-60.887 73.238 53.211zm-95.566-52.246v-40.789l77.078 28.758zm-2.5195 0-77.078-12.031 77.078-28.758zm-95.578 52.246-61.52-7.6719 73.234-53.215zm-79.227 74.762-38.789-12.602 51.172-64.426zm19.293 106.5-54.707-30.176 35.867-70.797zm0.085937 2.9219-26.312 56.145-27.973-86.082zm46.617 98.449-23.988 33.004-45.449-68.57zm2.0391 1.4805 55.281 55.043-79.266-22.047zm108.03 13.91 45.258 42.375h-90.516zm108.02-13.91 23.98 32.996-79.258 22.047zm26.027 31.52-23.992-33.004 69.441-35.57zm48.945-75.305-26.312-56.145 54.277-29.938zm-26.234-59.066 18.832-100.97 35.875 70.797zm6.918-183.53 51.168 64.426-38.789 12.602zm-379.3 66.812 38.789 12.602-35.266 69.59zm427.72 82.199-35.266-69.59 38.797-12.602z"/>
</svg>